<?xml version="1.0" standalone="no"?>
<!DOCTYPE svg PUBLIC "-//W3C//DTD SVG 20010904//EN"
 "http://www.w3.org/TR/2001/REC-SVG-20010904/DTD/svg10.dtd">
<svg version="1.0" xmlns="http://www.w3.org/2000/svg"
 width="1280.000000pt" height="886.000000pt" viewBox="0 0 1280.000000 886.000000"
 preserveAspectRatio="xMidYMid meet">
<g transform="translate(0.000000,886.000000) scale(0.100000,-0.100000)"
fill="#000000" stroke="none">
<path d="M6400 8613 c-79 -137 -150 -256 -158 -265 -14 -16 -41 -18 -308 -18
l-292 0 -147 -252 c-82 -139 -153 -256 -159 -260 -6 -4 -139 -8 -296 -8 l-285
0 -148 -255 c-122 -208 -153 -256 -175 -262 -27 -7 -540 5 -553 13 -4 2 -67
109 -140 237 -73 127 -139 240 -147 250 -14 15 -41 17 -301 17 -157 0 -291 4
-297 8 -6 4 -66 104 -134 222 -67 118 -133 232 -146 253 l-24 37 -302 -2 -301
-3 -142 -245 c-79 -135 -148 -251 -154 -257 -9 -10 -83 -13 -304 -13 l-293 0
-152 -261 -152 -260 141 -247 c78 -136 149 -255 157 -264 14 -16 41 -18 302
-18 261 0 288 -2 302 -17 34 -39 288 -498 283 -511 -3 -8 -69 -124 -147 -258
l-142 -244 -290 -2 -290 -3 -141 -241 c-77 -133 -146 -248 -154 -258 -12 -14
-46 -16 -306 -16 l-293 0 -138 -237 c-75 -131 -145 -250 -155 -264 -13 -19
-15 -29 -7 -37 6 -6 75 -122 153 -259 l143 -248 298 -5 299 -5 142 -245 c78
-135 142 -251 142 -258 1 -7 -62 -121 -140 -253 -77 -132 -143 -247 -146 -255
-3 -8 59 -127 143 -274 l148 -260 291 0 c266 0 293 -2 307 -17 25 -29 288
-491 288 -506 0 -8 -65 -126 -145 -263 -80 -137 -143 -253 -141 -259 2 -5 69
-122 148 -260 l144 -250 296 -5 c163 -3 299 -8 303 -12 4 -3 71 -118 149 -255
l142 -248 306 -3 306 -2 144 246 c78 136 152 252 163 260 16 11 75 12 296 7
l276 -6 145 -251 144 -251 299 -5 299 -5 146 -255 146 -255 44 -7 c25 -3 160
-7 302 -7 l256 -1 132 227 c73 126 143 245 156 265 l24 38 296 2 297 3 141
241 c77 133 147 249 155 258 12 15 44 16 294 14 l281 -3 147 -255 146 -255
299 -5 299 -5 132 -230 c72 -126 141 -245 152 -262 l21 -33 299 0 c277 0 300
1 305 18 4 9 70 127 149 262 l143 245 300 5 299 5 147 250 c81 138 147 255
147 261 1 11 -273 499 -291 519 -5 6 -127 12 -306 15 l-296 5 -133 230 c-73
127 -140 244 -149 261 l-17 31 143 244 c78 134 147 247 154 251 6 4 142 8 301
8 l290 0 134 233 c74 127 143 244 153 260 l19 27 292 0 292 0 149 255 c119
206 153 256 174 262 13 3 145 3 291 -1 250 -7 268 -6 282 11 9 10 78 125 154
256 75 130 141 240 145 242 5 3 -7 31 -26 63 -19 31 -87 149 -151 262 l-118
205 -297 5 c-163 3 -300 8 -303 12 -4 4 -71 119 -149 255 l-142 248 -306 3
-306 2 -143 -247 c-79 -135 -150 -252 -157 -260 -15 -14 -213 -16 -457 -4
l-130 6 -146 255 -147 255 -298 5 -299 5 -118 205 c-180 311 -169 287 -150
324 38 74 267 462 277 468 6 4 147 8 313 8 l301 0 152 259 151 260 -147 258
c-81 142 -148 259 -148 260 -1 1 -136 5 -302 9 l-301 7 -20 -29 c-11 -16 -80
-131 -152 -256 l-133 -228 -298 0 -299 0 -19 28 c-10 15 -78 131 -151 259
-120 211 -131 234 -120 255 7 13 67 118 135 233 67 116 128 223 135 238 11 25
3 42 -137 287 l-149 260 -290 0 c-159 0 -295 4 -301 8 -6 4 -77 123 -158 265
l-148 257 -297 0 -298 0 -143 -247z m717 221 c17 -5 59 -70 163 -251 77 -135
140 -250 140 -256 0 -10 -257 -455 -284 -492 -13 -18 -28 -19 -297 -16 -156 1
-289 7 -295 12 -18 14 -284 482 -284 499 0 18 268 481 288 498 12 9 84 12 281
12 146 0 276 -3 288 -6z m-4426 -533 c16 -15 279 -481 279 -494 0 -16 -262
-470 -288 -499 -13 -16 -38 -18 -227 -18 -117 0 -246 3 -287 6 l-75 7 -142
247 c-77 136 -141 253 -141 259 0 15 280 494 294 503 13 9 578 -2 587 -11z
m3551 2 c29 -34 278 -477 278 -495 0 -16 -223 -409 -272 -480 l-19 -28 -285 0
-284 0 -24 38 c-62 95 -266 463 -266 479 0 18 267 483 284 495 6 4 137 8 292
8 255 0 282 -2 296 -17z m1780 5 c21 -18 288 -483 288 -503 0 -13 -268 -486
-286 -504 -2 -2 -133 -3 -291 -2 -257 2 -290 4 -304 19 -9 9 -76 122 -149 250
-117 207 -131 236 -122 257 18 40 264 459 280 478 14 15 41 17 292 17 206 0
280 -3 292 -12z m-6230 -525 c25 -28 289 -493 285 -501 -2 -4 -68 -118 -147
-255 l-143 -247 -296 2 -295 3 -144 252 -144 252 132 228 c73 125 142 240 152
256 l19 27 283 0 c257 0 284 -2 298 -17z m1682 8 l109 -6 139 -243 138 -242
-16 -33 c-34 -65 -267 -463 -283 -481 -15 -18 -30 -18 -290 -13 -212 4 -276 8
-286 18 -13 14 -271 457 -281 484 -6 15 267 492 294 513 17 13 270 15 476 3z
m1875 -5 c6 -7 74 -122 151 -256 120 -209 138 -246 128 -264 -6 -12 -71 -126
-145 -253 l-135 -233 -287 0 c-262 0 -289 2 -303 18 -26 30 -278 479 -278 495
0 14 256 463 282 495 16 18 571 17 587 -2z m1777 6 c19 -12 296 -503 291 -515
-3 -7 -68 -120 -145 -252 l-140 -240 -293 0 -294 0 -142 245 c-78 135 -142
252 -142 260 -1 12 213 392 275 488 14 22 15 22 297 22 155 0 287 -4 293 -8z
m-4450 -520 c12 -8 294 -497 294 -509 0 -5 -65 -118 -143 -253 l-143 -245
-298 0 -299 0 -138 240 c-76 132 -138 248 -138 258 -1 19 261 477 286 503 12
11 68 14 291 14 152 0 282 -4 288 -8z m1780 0 c17 -11 284 -482 284 -501 0 -9
-64 -127 -143 -261 l-142 -245 -280 -2 c-154 -2 -285 0 -291 5 -6 4 -75 118
-153 254 l-143 247 127 218 c70 120 138 235 151 256 l24 37 278 0 c152 0 282
-4 288 -8z m1786 -9 c8 -10 77 -127 152 -259 l137 -242 -144 -248 -145 -249
-290 -3 -290 -2 -19 27 c-38 55 -273 470 -273 482 0 15 279 494 294 503 6 4
135 8 287 8 250 0 277 -2 291 -17z m1790 1 c15 -9 278 -480 278 -498 0 -19
-275 -496 -294 -509 -18 -14 -569 1 -582 16 -31 32 -284 493 -279 507 10 26
267 464 284 484 15 18 30 18 301 11 157 -4 288 -9 292 -11z m1940 -249 c76
-132 140 -247 143 -256 5 -16 -266 -496 -289 -511 -14 -10 -568 -10 -583 0
-10 6 -277 464 -289 497 -4 10 146 280 268 483 l20 32 296 -2 296 -3 138 -240z
m-4626 -263 c6 -4 75 -118 153 -255 126 -221 140 -250 130 -270 -36 -68 -264
-455 -277 -469 -14 -16 -41 -18 -291 -18 -152 0 -281 4 -287 8 -14 9 -294 497
-294 512 0 12 256 456 278 483 14 15 41 17 296 17 155 0 286 -4 292 -8z m1786
-4 c24 -20 291 -496 285 -510 -3 -7 -68 -121 -145 -253 l-140 -240 -292 0
-293 0 -143 250 c-79 138 -144 254 -144 258 0 12 282 491 294 499 6 4 135 8
287 8 205 0 279 -3 291 -12z m1771 3 c19 -7 60 -71 161 -248 74 -131 137 -245
140 -253 3 -8 -59 -125 -138 -260 l-143 -245 -299 0 -298 0 -143 249 c-122
215 -140 252 -131 270 49 95 274 474 286 484 19 15 526 18 565 3z m-5186 -256
c79 -137 143 -254 143 -260 0 -5 -64 -120 -143 -255 l-142 -245 -286 -3 c-263
-2 -287 -1 -301 15 -12 15 -241 411 -277 481 -12 24 -19 12 226 430 l54 92
292 -2 291 -3 143 -250z m-1039 -263 c22 -14 293 -495 289 -512 -9 -33 -281
-491 -296 -499 -9 -4 -141 -5 -293 -3 l-277 4 -137 242 c-76 132 -142 248
-147 257 -8 12 23 72 128 253 76 130 144 244 152 252 12 11 64 14 291 14 152
0 283 -4 290 -8z m1788 -15 c7 -7 73 -119 148 -251 118 -208 134 -241 124
-260 -45 -87 -274 -474 -286 -483 -12 -10 -84 -13 -284 -13 -246 0 -269 1
-286 18 -26 26 -282 476 -282 496 0 26 282 505 300 508 8 2 137 2 285 0 187
-3 273 -7 281 -15z m1770 15 c6 -4 75 -119 154 -256 l143 -249 -26 -51 c-15
-28 -80 -141 -145 -251 l-117 -200 -295 0 -294 0 -138 240 c-76 132 -140 248
-143 257 -6 17 265 494 289 510 6 4 135 8 286 8 151 0 280 -4 286 -8z m1871
-140 c45 -78 110 -191 144 -251 l61 -110 -127 -218 c-70 -120 -138 -235 -151
-255 l-24 -38 -278 0 c-152 0 -282 4 -288 8 -6 4 -75 118 -153 255 -126 220
-140 250 -130 270 40 76 274 473 283 479 6 5 139 7 296 5 l284 -2 83 -143z
m-4535 -384 c20 -16 288 -485 288 -505 0 -15 -252 -454 -278 -485 -14 -16 -41
-18 -297 -18 -211 0 -284 3 -294 13 -23 22 -281 482 -281 501 0 17 248 453
278 489 14 15 41 17 292 17 206 0 280 -3 292 -12z m1925 -243 c86 -149 141
-255 138 -265 -10 -26 -267 -464 -283 -482 -14 -16 -41 -18 -291 -18 -152 0
-281 4 -286 8 -16 10 -285 482 -285 499 0 10 174 319 272 481 l20 32 286 -2
286 -3 143 -250z m1630 247 c20 -13 284 -483 281 -501 -2 -9 -68 -128 -147
-264 l-144 -247 -285 2 -285 3 -145 252 -144 251 127 219 c70 120 138 235 151
256 l24 37 278 0 c152 0 282 -4 289 -8z m1807 -29 c35 -55 266 -461 266 -469
0 -6 -238 -417 -276 -476 l-24 -38 -279 0 c-251 0 -281 2 -299 18 -21 18 -282
472 -282 490 0 6 66 123 146 261 l146 251 289 0 289 0 24 -37z m-7132 10 c28
-33 278 -480 278 -497 0 -17 -249 -454 -278 -488 -14 -16 -41 -18 -298 -18
l-284 0 -24 38 c-61 94 -266 463 -266 478 0 9 64 127 142 260 l142 244 287 0
c260 0 287 -2 301 -17z m6055 -493 l161 0 141 -246 c78 -136 141 -252 141
-259 0 -21 -276 -488 -296 -501 -14 -9 -90 -10 -294 -5 l-275 6 -137 235 c-75
129 -137 245 -137 257 -1 26 261 480 292 507 20 17 33 18 132 12 61 -3 183 -6
272 -6z m1950 -13 c6 -7 73 -119 148 -251 124 -216 136 -241 126 -263 -20 -43
-262 -457 -279 -475 -14 -16 -41 -18 -292 -18 -205 0 -280 3 -293 13 -20 15
-287 481 -287 501 0 24 276 490 297 501 29 15 565 8 580 -8z m-9003 4 l109 -6
138 -240 c76 -132 138 -248 138 -258 1 -20 -273 -496 -293 -510 -6 -5 -136 -6
-289 -4 -222 3 -281 7 -292 18 -7 8 -75 121 -150 252 -121 209 -136 242 -127
262 19 40 264 459 280 478 13 15 35 17 196 16 100 -1 230 -4 290 -8z m3642 3
c14 -4 63 -80 162 -253 78 -137 142 -254 142 -261 0 -7 -64 -122 -141 -257
-102 -175 -148 -245 -163 -248 -12 -3 -144 -1 -295 3 l-274 7 -144 252 -144
252 132 228 c73 125 141 240 151 256 l19 27 267 0 c147 0 276 -3 288 -6z
m1941 -244 c78 -135 142 -252 142 -260 0 -8 -64 -125 -143 -260 l-143 -245
-285 -3 c-261 -2 -286 -1 -300 15 -14 17 -234 396 -272 471 l-17 32 77 133
c42 72 108 185 146 250 l69 117 292 -2 292 -3 142 -245z m5205 236 c8 -7 76
-122 152 -255 l138 -242 -138 -237 c-75 -130 -144 -245 -152 -254 -14 -16 -41
-18 -296 -18 -155 0 -286 4 -292 8 -6 4 -75 118 -153 255 -127 221 -140 250
-130 270 37 69 264 455 277 470 14 15 41 17 298 17 226 0 285 -3 296 -14z
m-8900 -13 c16 -18 250 -424 270 -468 9 -21 -4 -48 -122 -252 -73 -125 -142
-240 -152 -255 l-19 -28 -273 0 c-203 0 -276 3 -288 13 -18 14 -288 483 -288
500 0 10 261 465 283 495 7 9 78 12 292 12 256 0 283 -2 297 -17z m6211 -495
c9 -7 77 -120 152 -252 94 -163 135 -246 133 -261 -3 -12 -67 -129 -143 -259
l-137 -236 -292 2 -291 3 -142 245 c-78 135 -142 253 -142 262 -1 14 252 460
281 496 8 9 78 12 287 12 206 0 281 -3 294 -12z m-7097 -21 c21 -23 274 -475
274 -490 0 -17 -262 -472 -286 -497 -12 -12 -59 -14 -297 -11 -199 2 -285 6
-294 14 -6 7 -73 119 -148 250 -121 211 -134 240 -124 260 47 90 275 475 288
485 21 18 570 7 587 -11z m1788 -14 c53 -83 266 -463 266 -475 0 -7 -65 -123
-144 -258 l-143 -245 -283 -3 c-199 -2 -287 1 -296 9 -13 11 -266 447 -280
482 -4 12 37 92 132 255 75 130 144 245 152 255 14 15 41 17 293 17 l279 0 24
-37z m1758 24 c7 -8 76 -123 152 -255 l138 -242 -148 -255 -148 -255 -287 0
-287 0 -141 245 c-78 136 -141 253 -141 261 0 17 264 477 287 500 21 20 555
21 575 1z m1780 -4 c17 -20 288 -493 288 -502 0 -4 -64 -117 -143 -251 l-142
-245 -294 0 -294 0 -143 250 c-79 138 -144 253 -144 258 0 4 66 120 146 257
l146 250 282 0 c257 0 284 -2 298 -17z m3576 -10 c34 -50 272 -470 272 -482 0
-15 -279 -494 -294 -503 -14 -10 -558 -10 -572 0 -23 15 -296 503 -290 518 7
19 265 464 279 482 7 9 79 12 298 12 l288 0 19 -27z m1919 -228 c79 -137 143
-254 143 -260 -1 -5 -65 -120 -144 -255 l-143 -245 -289 -2 c-159 -2 -294 0
-299 5 -17 11 -285 483 -285 500 0 13 190 351 267 475 l23 37 292 -2 292 -3
143 -250z m-9945 -277 c18 -15 288 -488 288 -506 0 -11 -234 -419 -272 -474
l-19 -28 -282 0 c-155 0 -287 4 -293 8 -17 11 -284 479 -284 498 0 15 254 464
283 502 7 9 77 12 286 12 207 0 281 -3 293 -12z m1802 -25 c65 -102 266 -462
266 -477 0 -17 -249 -454 -278 -488 -14 -16 -41 -18 -297 -18 -256 0 -283 2
-297 18 -23 26 -281 484 -281 497 0 14 257 460 281 488 14 15 41 17 298 17
l284 0 24 -37z m1780 0 c77 -121 267 -467 262 -480 -10 -25 -268 -467 -284
-485 -14 -16 -40 -18 -287 -18 -202 0 -275 3 -287 13 -19 14 -288 480 -288
498 0 12 35 72 222 392 l69 117 284 0 285 0 24 -37z m1755 25 c20 -21 281
-482 281 -499 0 -8 -64 -125 -143 -259 l-142 -245 -280 -2 c-154 -2 -285 0
-291 5 -6 4 -75 119 -153 255 l-142 248 137 237 c76 130 144 245 152 255 14
15 41 17 292 17 207 0 279 -3 289 -12z m1928 -238 c78 -135 142 -250 142 -257
1 -14 -278 -495 -293 -505 -6 -4 -135 -8 -287 -8 -205 0 -279 3 -291 13 -18
14 -288 487 -288 504 0 10 262 466 282 491 8 9 77 12 302 10 l291 -3 142 -245z
m1645 233 c26 -31 278 -480 278 -496 0 -14 -256 -463 -282 -494 -8 -10 -79
-13 -292 -13 -154 0 -286 4 -292 8 -6 4 -65 102 -131 217 -170 297 -164 284
-151 309 6 12 71 126 145 254 l135 232 288 0 c261 0 288 -2 302 -17z m-4438
-541 c55 -85 266 -460 266 -472 0 -15 -267 -475 -287 -496 -20 -19 -551 -21
-575 -1 -9 6 -80 124 -158 260 l-141 249 142 245 c79 135 151 248 160 252 10
3 142 5 293 3 l276 -3 24 -37z m1656 39 l105 -6 142 -249 142 -248 -16 -32
c-45 -88 -268 -463 -281 -473 -17 -14 -232 -16 -456 -4 l-119 6 -138 240 c-76
132 -138 248 -138 258 -1 19 274 498 293 509 13 9 315 8 466 -1z m-6996 -38
c47 -75 266 -461 266 -471 0 -14 -281 -495 -294 -504 -6 -4 -138 -8 -293 -8
l-283 0 -24 38 c-56 87 -266 463 -266 476 0 13 257 463 282 494 8 9 80 12 299
12 l289 0 24 -37z m1903 -213 c78 -135 142 -253 142 -263 1 -18 -245 -452
-277 -489 -14 -16 -41 -18 -296 -18 -155 0 -286 4 -292 8 -17 11 -284 482
-284 501 0 15 254 463 283 499 7 9 75 12 296 10 l286 -3 142 -245z m1491 243
l151 -6 142 -249 c78 -137 142 -255 142 -262 0 -19 -276 -487 -292 -496 -9 -4
-143 -5 -297 -2 l-281 5 -142 247 c-77 136 -141 253 -141 260 0 14 267 475
287 496 16 16 170 19 431 7z m5505 -30 c64 -101 267 -464 267 -477 0 -7 -64
-123 -143 -257 l-142 -244 -285 -2 c-157 -2 -290 1 -297 5 -10 6 -277 464
-289 497 -3 7 61 126 141 264 l147 251 289 0 289 0 23 -37z m-909 -493 c7 -8
76 -122 151 -254 126 -219 136 -240 125 -264 -31 -68 -274 -473 -288 -481 -10
-5 -142 -6 -295 -3 l-277 5 -145 253 c-80 140 -145 256 -145 259 0 11 283 490
294 498 6 4 136 6 288 5 231 -3 280 -6 292 -18z m-7112 -7 c26 -31 278 -480
278 -496 0 -8 -64 -124 -143 -258 l-142 -244 -292 -3 -293 -2 -23 37 c-54 85
-267 463 -267 473 0 6 66 123 146 260 l146 250 287 0 c262 0 289 -2 303 -17z
m1780 0 c25 -28 279 -475 281 -492 1 -16 -252 -459 -281 -494 -14 -16 -38 -17
-301 -15 l-286 3 -142 245 c-78 135 -142 252 -142 260 -1 12 219 403 275 488
14 22 15 22 298 22 257 0 284 -2 298 -17z m1755 11 c17 -5 59 -70 163 -251 77
-135 140 -250 140 -257 0 -6 -65 -121 -144 -256 l-143 -245 -286 -3 -285 -2
-20 27 c-59 86 -273 475 -268 489 10 25 268 467 284 487 14 15 40 17 276 17
144 0 271 -3 283 -6z m1790 -2 c13 -8 283 -476 290 -503 5 -17 -236 -447 -275
-491 -14 -16 -41 -18 -297 -18 -256 0 -283 2 -297 18 -27 31 -278 479 -278
496 0 16 250 455 278 489 14 15 40 17 291 17 152 0 281 -4 288 -8z m-4435
-529 c8 -10 77 -127 152 -260 l137 -241 -146 -251 -147 -251 -288 0 -289 0
-19 28 c-39 55 -272 470 -272 484 0 13 257 464 282 496 8 9 79 12 293 12 256
0 283 -2 297 -17z m1774 9 c6 -4 75 -119 153 -255 l142 -248 -132 -227 c-73
-125 -141 -239 -151 -255 l-20 -27 -286 2 -286 3 -143 248 c-79 137 -143 254
-143 259 0 10 204 369 267 471 l23 37 283 0 c155 0 287 -4 293 -8z m1780 0
c16 -11 284 -481 284 -499 0 -17 -264 -476 -288 -499 -11 -12 -63 -14 -295
-12 l-282 3 -142 245 c-78 135 -142 249 -142 254 -1 12 265 473 287 499 14 15
40 17 291 17 152 0 281 -4 287 -8z m1921 -247 c79 -137 143 -256 143 -264 0
-15 -253 -455 -278 -483 -14 -16 -41 -18 -298 -18 l-283 0 -19 28 c-39 58
-272 469 -272 482 0 12 33 72 222 393 l69 117 287 -2 286 -3 143 -250z m-6371
-273 c18 -11 284 -482 284 -502 0 -10 -64 -127 -143 -261 l-142 -244 -285 -2
c-157 -2 -290 0 -296 5 -11 7 -262 434 -285 485 -10 22 4 50 136 276 l147 251
286 0 c158 0 292 -4 298 -8z m1786 -9 c20 -23 269 -459 275 -482 2 -10 -54
-118 -142 -269 l-147 -252 -284 0 -284 0 -24 38 c-44 68 -266 461 -266 471 0
14 281 494 294 503 6 4 135 8 287 8 250 0 277 -2 291 -17z m1780 0 c26 -31
278 -480 278 -496 0 -14 -256 -463 -282 -494 -8 -10 -79 -13 -293 -13 -256 0
-283 2 -297 18 -24 28 -278 478 -278 493 0 11 197 358 267 472 l23 37 284 0
c257 0 284 -2 298 -17z m1917 -229 c78 -136 141 -253 141 -262 0 -16 -265
-475 -287 -498 -20 -19 -551 -21 -575 -1 -21 16 -288 484 -288 505 0 8 64 125
142 258 l142 244 292 0 292 0 141 -246z m1659 219 c10 -16 76 -128 147 -251
114 -199 126 -226 117 -247 -18 -40 -264 -459 -280 -477 -14 -16 -41 -18 -298
-18 l-284 0 -24 38 c-50 77 -266 462 -266 473 0 12 35 73 222 392 l69 117 289
0 289 0 19 -27z m-6102 -748 c79 -137 144 -253 144 -256 0 -10 -283 -494 -294
-501 -6 -4 -138 -8 -293 -8 -225 0 -284 3 -295 14 -8 7 -76 122 -151 254
l-138 241 132 228 c73 125 141 240 151 256 l20 27 289 -2 290 -3 145 -250z
m1773 9 c78 -136 141 -252 141 -259 0 -17 -279 -497 -294 -507 -13 -9 -440
-10 -523 -2 l-60 7 -136 237 c-76 130 -137 244 -137 253 0 8 66 128 146 266
l146 251 288 0 288 0 141 -246z m1643 229 c14 -17 238 -403 272 -470 l16 -33
-141 -242 c-78 -134 -146 -246 -153 -250 -6 -4 -138 -8 -293 -8 l-283 0 -24
37 c-53 84 -266 463 -266 476 0 12 258 465 282 495 8 9 79 12 293 12 256 0
283 -2 297 -17z m1919 -228 c76 -132 138 -248 138 -259 1 -19 -260 -476 -286
-502 -12 -11 -67 -14 -291 -14 -152 0 -282 4 -288 8 -17 10 -296 500 -291 509
2 4 68 119 148 256 l143 247 294 -2 295 -3 138 -240z m1651 228 c25 -29 278
-479 278 -494 0 -8 -65 -124 -143 -259 l-143 -245 -294 0 -295 0 -142 245
c-78 135 -142 251 -142 259 -1 13 31 69 221 394 l69 117 288 0 c262 0 289 -2
303 -17z m-4461 -511 c22 -22 279 -484 279 -500 0 -32 -278 -500 -302 -507
-11 -4 -145 -4 -298 0 l-277 8 -142 247 c-77 136 -141 250 -141 254 0 8 277
484 294 505 9 11 59 12 296 6 157 -3 288 -10 291 -13z m3565 -8 c6 -7 73 -122
149 -254 l137 -240 -137 -237 c-76 -131 -145 -246 -153 -255 -14 -16 -40 -18
-286 -18 -195 0 -278 4 -295 13 -15 8 -71 94 -158 247 -75 129 -137 240 -139
245 -4 10 279 505 295 514 5 4 137 5 293 3 229 -3 285 -6 294 -18z"/>
</g>
</svg>
